<?xml version="1.0" encoding="UTF-8" standalone="no"?>
<svg
   xmlns:dc="http://purl.org/dc/elements/1.1/"
   xmlns:cc="http://creativecommons.org/ns#"
   xmlns:rdf="http://www.w3.org/1999/02/22-rdf-syntax-ns#"
   xmlns:svg="http://www.w3.org/2000/svg"
   xmlns="http://www.w3.org/2000/svg"
   xmlns:sodipodi="http://sodipodi.sourceforge.net/DTD/sodipodi-0.dtd"
   xmlns:inkscape="http://www.inkscape.org/namespaces/inkscape"
   width="959"
   height="593"
   version="1.1"
   id="svg1789"
   sodipodi:docname="oregon-outline.svg"
   inkscape:version="1.0.2-2 (e86c870879, 2021-01-15)">
  <metadata
     id="metadata1793">
    <rdf:RDF>
      <cc:Work
         rdf:about="">
        <dc:format>image/svg+xml</dc:format>
        <dc:type
           rdf:resource="http://purl.org/dc/dcmitype/StillImage" />
        <dc:title>Blank map of the United States, territories not included</dc:title>
      </cc:Work>
    </rdf:RDF>
  </metadata>
  <sodipodi:namedview
     pagecolor="#ffffff"
     bordercolor="#666666"
     borderopacity="1"
     objecttolerance="10"
     gridtolerance="10"
     guidetolerance="10"
     inkscape:pageopacity="0"
     inkscape:pageshadow="2"
     inkscape:window-width="1254"
     inkscape:window-height="739"
     id="namedview1791"
     showgrid="false"
     showguides="false"
     inkscape:zoom="0.83320248"
     inkscape:cx="668.86112"
     inkscape:cy="296.5"
     inkscape:window-x="486"
     inkscape:window-y="176"
     inkscape:window-maximized="0"
     inkscape:current-layer="svg1789" />
  <title
     id="title1355">Blank map of the United States, territories not included</title>
  <defs
     id="defs1359">
    <style
       type="text/css"
       id="style1357">
.state {fill:#D0D0D0}                        /* default color for all states not specified below */
.borders {stroke:#FFFFFF; stroke-width:1}    /* color and width of borders between states */
.dccircle {display:yes}                      /* set display to yes to show the circle for the District of Columbia, or none to hide it */
.separator1 {stroke:#B0B0B0; stroke-width:2} /* color and width of lines around Alaska and Hawaii */

/* Individual states can be colored as follows:
.ks,.mt,.pa {fill:#0000FF}
.ca,.de {fill:#FF0000}
In this example, Kansas, Montana and Pennsylvania are colored blue, and California and Delaware are colored red.
Place this code in the empty space below. */



</style>
  </defs>
  <path
     class="or"
     d="m 589.73632,412.14069 149.55935,35.63968 27.04796,-118.69283 9.22813,-18.45625 1.27284,-6.68244 2.54569,-2.8639 -2.8639,-6.36423 -9.22813,-3.81853 0.63643,-13.36488 12.72844,-18.45625 7.95529,-2.5457 5.09137,-7.31889 -0.3182,-5.09138 5.7278,-5.09138 10.18277,-17.50162 13.36487,-15.27415 -1.59106,-10.18275 -11.1374,-9.86456 -5.09138,-11.4556 -96.41802,-23.22943 -8.90995,3.18212 -17.18341,-2.86391 -5.72781,-2.8639 -4.77316,3.81853 -10.50097,-1.27284 -14.31952,1.59106 -2.86389,2.22747 -13.36488,-1.27284 -2.5457,-5.09138 -3.81853,-0.63642 -14.00129,4.13675 -5.09138,-3.50033 -7.00065,2.54569 -0.63643,-5.7278 -7.31885,-3.81854 -4.77318,-0.63642 -3.18211,-3.50032 -9.54634,0.95463 -3.81853,-2.54569 h -3.81853 l -3.81855,2.86391 -17.50162,2.22747 -21.00195,-13.36487 3.50034,-17.81984 -1.27285,-13.046665 -10.18277,-11.773821 -11.77381,0.318214 -1.27285,-3.500332 1.27285,-3.818534 -2.22748,-2.545689 -3.18212,0.318214 -3.50032,4.136748 -4.77317,-0.636428 -1.59106,-3.50032 -3.18211,-0.318214 -2.22748,1.909261 -6.36423,-6.046009 v 13.683089 l -4.13675,4.136751 -3.50032,11.137395 -0.31821,7.31886 -14.31951,39.14 -42.00389,99.60013 -10.18276,14.63776 -5.09137,-0.31822 0.3182,6.68244 -16.54698,22.593 -0.95463,10.50097 3.18212,4.13675 0.31821,7.63708 -3.81854,3.50032 -3.81854,9.54634 0.31822,18.13804 3.81853,9.22813 z"
     id="path1507"
     style="fill:#ffffff;fill-opacity:1;stroke:#000000;stroke-width:3.18212;stroke-opacity:1">
    <title
       id="title1505">Oregon</title>
  </path>
</svg>
