<?xml version="1.0" encoding="UTF-8" standalone="no"?>
<svg
   xmlns:dc="http://purl.org/dc/elements/1.1/"
   xmlns:cc="http://creativecommons.org/ns#"
   xmlns:rdf="http://www.w3.org/1999/02/22-rdf-syntax-ns#"
   xmlns:svg="http://www.w3.org/2000/svg"
   xmlns="http://www.w3.org/2000/svg"
   xmlns:sodipodi="http://sodipodi.sourceforge.net/DTD/sodipodi-0.dtd"
   xmlns:inkscape="http://www.inkscape.org/namespaces/inkscape"
   version="1.0"
   width="3.7499981pt"
   height="4.0300064pt"
   viewBox="0 0 3.7499981 4.0300064"
   preserveAspectRatio="xMidYMid meet"
   id="svg17553"
   sodipodi:docname="US_Route_20_in_Illinois_Road_Sign.svg"
   inkscape:version="1.0.2-2 (e86c870879, 2021-01-15)">
  <defs
     id="defs17557" />
  <sodipodi:namedview
     pagecolor="#ffffff"
     bordercolor="#666666"
     borderopacity="1"
     objecttolerance="10"
     gridtolerance="10"
     guidetolerance="10"
     inkscape:pageopacity="0"
     inkscape:pageshadow="2"
     inkscape:window-width="1333"
     inkscape:window-height="799"
     id="namedview17555"
     showgrid="false"
     inkscape:zoom="68.426637"
     inkscape:cx="2.9492674"
     inkscape:cy="2.2594957"
     inkscape:window-x="99"
     inkscape:window-y="101"
     inkscape:window-maximized="0"
     inkscape:current-layer="svg17553"
     inkscape:document-rotation="0"
     fit-margin-top="0"
     fit-margin-left="0"
     fit-margin-right="0"
     fit-margin-bottom="0" />
  <metadata
     id="metadata17543">
Created by potrace 1.15, written by Peter Selinger 2001-2017
<rdf:RDF>
  <cc:Work
     rdf:about="">
    <dc:format>image/svg+xml</dc:format>
    <dc:type
       rdf:resource="http://purl.org/dc/dcmitype/StillImage" />
    <dc:title></dc:title>
  </cc:Work>
</rdf:RDF>
</metadata>
  <path
     style="color:#000000;font-style:normal;font-variant:normal;font-weight:normal;font-stretch:normal;font-size:medium;line-height:normal;font-family:sans-serif;font-variant-ligatures:normal;font-variant-position:normal;font-variant-caps:normal;font-variant-numeric:normal;font-variant-alternates:normal;font-variant-east-asian:normal;font-feature-settings:normal;font-variation-settings:normal;text-indent:0;text-align:start;text-decoration:none;text-decoration-line:none;text-decoration-style:solid;text-decoration-color:#000000;letter-spacing:normal;word-spacing:normal;text-transform:none;writing-mode:lr-tb;direction:ltr;text-orientation:mixed;dominant-baseline:auto;baseline-shift:baseline;text-anchor:start;white-space:normal;shape-padding:0;shape-margin:0;inline-size:0;clip-rule:nonzero;display:inline;overflow:visible;visibility:visible;isolation:auto;mix-blend-mode:normal;color-interpolation:sRGB;color-interpolation-filters:linearRGB;solid-color:#000000;solid-opacity:1;vector-effect:none;fill:none;fill-opacity:1;fill-rule:nonzero;stroke:#000000;stroke-linecap:butt;stroke-linejoin:miter;stroke-miterlimit:4;stroke-dasharray:none;stroke-dashoffset:0;stroke-opacity:1;color-rendering:auto;image-rendering:auto;shape-rendering:auto;text-rendering:auto;enable-background:accumulate;stop-color:#000000;stop-opacity:1;opacity:1;stroke-width:0.075"
     d="m 1.875,0.08984375 0.050781,0.0390625 v 0.001953 c 0.08436,0.0642291 0.1748009,0.11263245 0.2636719,0.14257812 0.066858,0.0229227 0.090218,0.0253906 0.2226563,0.0253906 0.1324385,0 0.1577514,-0.002468 0.2246094,-0.0253906 0.088871,-0.0299456 0.1783696,-0.0793566 0.2636718,-0.14453125 l 0.050781,-0.0390625 0.017578,0.01757813 c 0.025372,0.0272718 0.1680802,0.18492296 0.4433594,0.49414062 0.080291,0.0897362 0.1706278,0.19120176 0.2011718,0.22460938 l 0.044922,0.0507812 -0.046875,0.046875 C 3.4992915,1.034899 3.4165983,1.1865395 3.3847656,1.3457031 c -0.024326,0.1167625 -0.020468,0.2814086 0.00781,0.3925781 0.024856,0.097514 0.053296,0.1637113 0.1347657,0.3105469 0.058447,0.1066891 0.1112843,0.2556626 0.1269531,0.3671875 0.018355,0.1220589 0.00582,0.3406628 -0.023437,0.453125 C 3.6014888,2.9792786 3.5138731,3.1614055 3.4492188,3.2460938 3.3780455,3.3403752 3.2658604,3.4428058 3.1699219,3.5 3.0126633,3.5936063 2.90988,3.6216626 2.6699219,3.6367188 2.5031035,3.6471449 2.4321864,3.6586906 2.2832031,3.7089844 2.1693896,3.7459494 1.9971042,3.8407917 1.9101562,3.9140625 L 1.875,3.9433594 1.828125,3.90625 C 1.7378201,3.8334234 1.5762464,3.7467696 1.4628906,3.7089844 1.3167926,3.6606012 1.2469531,3.6471484 1.0800781,3.6367188 0.84012008,3.6216626 0.73634656,3.5936222 0.578125,3.5 0.47941554,3.4415055 0.33745046,3.3070811 0.2734375,3.2128906 0.14463308,3.0206173 0.0859375,2.8202613 0.0859375,2.5800781 0.08687292,2.3761557 0.12541292,2.2207242 0.22070312,2.0488281 0.30119531,1.9011012 0.33060599,1.8358198 0.35546875,1.7382812 0.38374871,1.6271118 0.38760675,1.4624655 0.36328125,1.3457031 0.33144854,1.1865395 0.24875557,1.0348991 0.13671875,0.92382812 L 0.08984375,0.87695312 0.2109375,0.7421875 C 0.28275216,0.66186846 0.36074558,0.57275028 0.38671875,0.54492188 0.41379833,0.51590804 0.5180255,0.40050951 0.61914062,0.28710938 0.66919203,0.2309196 0.71616925,0.17970944 0.75,0.14257812 c 0.0169154,-0.0185657 0.0293364,-0.0346124 0.0390625,-0.04492187 0.002432,-0.0025774 0.003973,-0.0039031 0.005859,-0.0058594 0.002828,0.0019465 0.00588,0.003073 0.009766,0.0058594 0.0115004,0.0082478 0.0285309,0.01860552 0.0449219,0.03125 v 0.001953 c 0.0842995,0.0641826 0.17262832,0.11352691 0.26171872,0.14257812 0.066858,0.0229227 0.092171,0.0253906 0.2246094,0.0253906 0.1324386,0 0.1577514,-0.002468 0.2246094,-0.0253906 0.088871,-0.0299456 0.1773582,-0.0783491 0.2617187,-0.14257812 v -0.001953 z"
     id="path18185" />
  <g
     id="g18189"
     transform="translate(0.15715842)">
    <path
       d="M 0.94063214,0.89286733 C 0.74742192,0.92492841 0.60736562,1.0447356 0.54239975,1.2328836 c -0.0219365,0.063279 -0.038811,0.1721171 -0.0286862,0.1813981 0.005906,0.00676 0.10208921,0.021093 0.1932102,0.028686 0.0101244,0.00169 0.0151868,-0.00589 0.0177179,-0.023624 0.009281,-0.091119 0.0151868,-0.1172764 0.0371233,-0.1628368 0.0767779,-0.162837 0.27758145,-0.230334 0.45138595,-0.1510253 0.06328,0.02953 0.1088393,0.075091 0.1425877,0.1409004 0.06328,0.1282444 0.043031,0.260707 -0.068341,0.4277622 C 1.2443686,1.739955 1.0865945,1.901104 0.90688362,2.0639406 0.75079679,2.2048405 0.68667462,2.2723375 0.61158418,2.3718957 0.52890035,2.4807347 0.4664656,2.629228 0.4664656,2.7152868 v 0.041341 H 1.0401903 1.6139149 V 2.6427275 2.5288261 l -0.4269187,-0.00169 -0.42691858,-0.00253 0.0404982,-0.054841 C 0.84782371,2.4047973 0.92544529,2.3271755 1.0908131,2.1769947 1.495795,1.8116706 1.6054778,1.645459 1.6054778,1.3990949 c 0,-0.1594617 -0.039655,-0.261551 -0.1434312,-0.3653276 C 1.3861124,0.95783319 1.3118658,0.9181787 1.2072453,0.89708589 1.1372173,0.88274277 1.0131914,0.88105535 0.94063214,0.89286733 Z"
       id="path17547"
       style="fill:#000000;fill-opacity:1;stroke:none;stroke-width:0.000843712" />
    <path
       d="M 2.2838228,0.89624217 C 2.1133929,0.93336554 1.9826172,1.0725782 1.9092143,1.296162 c -0.093653,0.2868623 -0.088589,0.8234636 0.00928,1.1044198 0.014342,0.040497 0.037967,0.096184 0.052309,0.1240259 0.033749,0.06412 0.1299317,0.1653677 0.1873041,0.1982725 0.1333067,0.075935 0.3568905,0.077622 0.4944157,0.00249 0.022779,-0.011807 0.069185,-0.051463 0.1029326,-0.086054 C 2.8575477,2.5322011 2.9191384,2.3862388 2.9528868,2.1727795 2.9765109,2.0259733 2.9739798,1.6007423 2.9486683,1.4657482 2.9267318,1.3467847 2.8980455,1.2565074 2.8516413,1.1620116 2.8077684,1.0734219 2.7073665,0.96627034 2.6348072,0.93167808 2.5419988,0.88611763 2.3960366,0.87177452 2.2838228,0.89624217 Z M 2.5192186,1.1004206 c 0.055685,0.025311 0.1214946,0.09112 0.1527119,0.1535557 0.053998,0.1063074 0.073402,0.2286462 0.078467,0.5087588 0.00676,0.3341102 -0.016874,0.5273205 -0.077622,0.648815 -0.034594,0.067497 -0.11559,0.1442749 -0.177181,0.1670552 -0.091121,0.034592 -0.18646,0.013499 -0.2699875,-0.059903 C 2.1505165,2.4528917 2.1074868,2.3524903 2.0804879,2.182904 2.0686759,2.1061264 2.0653005,2.0344106 2.0653005,1.8412003 c 0,-0.3180796 0.019406,-0.4564485 0.083528,-0.5922862 C 2.2230755,1.093671 2.3707249,1.0337673 2.5192186,1.1004206 Z"
       id="path17549"
       style="fill:#000000;fill-opacity:1;stroke:none;stroke-width:0.000843712" />
  </g>
</svg>
