<?xml version="1.0" encoding="UTF-8" standalone="no"?>
<svg
   xmlns:dc="http://purl.org/dc/elements/1.1/"
   xmlns:cc="http://creativecommons.org/ns#"
   xmlns:rdf="http://www.w3.org/1999/02/22-rdf-syntax-ns#"
   xmlns:svg="http://www.w3.org/2000/svg"
   xmlns="http://www.w3.org/2000/svg"
   xmlns:sodipodi="http://sodipodi.sourceforge.net/DTD/sodipodi-0.dtd"
   xmlns:inkscape="http://www.inkscape.org/namespaces/inkscape"
   width="127mm"
   height="111.125mm"
   viewBox="0 0 127 111.125"
   version="1.1"
   id="svg8"
   inkscape:version="1.0.2-2 (e86c870879, 2021-01-15)"
   sodipodi:docname="paths-bottom-outlines.svg">
  <defs
     id="defs2">
    <clipPath
       clipPathUnits="userSpaceOnUse"
       id="clipPath851">
      <path
         d="M 0,540 H 720 V 0 H 0 Z"
         id="path849" />
    </clipPath>
    <clipPath
       clipPathUnits="userSpaceOnUse"
       id="clipPath863">
      <path
         d="M 0,540 H 720 V 0 H 0 Z"
         id="path861" />
    </clipPath>
  </defs>
  <sodipodi:namedview
     id="base"
     pagecolor="#ffffff"
     bordercolor="#666666"
     borderopacity="1.0"
     inkscape:pageopacity="0.0"
     inkscape:pageshadow="2"
     inkscape:zoom="1.3556593"
     inkscape:cx="320.80298"
     inkscape:cy="228.42694"
     inkscape:document-units="mm"
     inkscape:current-layer="layer1"
     inkscape:document-rotation="0"
     showgrid="false"
     inkscape:snap-text-baseline="false"
     inkscape:window-width="1920"
     inkscape:window-height="1001"
     inkscape:window-x="-9"
     inkscape:window-y="-9"
     inkscape:window-maximized="1"
     units="mm" />
  <metadata
     id="metadata5">
    <rdf:RDF>
      <cc:Work
         rdf:about="">
        <dc:format>image/svg+xml</dc:format>
        <dc:type
           rdf:resource="http://purl.org/dc/dcmitype/StillImage" />
        <dc:title />
      </cc:Work>
    </rdf:RDF>
  </metadata>
  <g
     inkscape:label="Layer 1"
     inkscape:groupmode="layer"
     id="layer1">
    <g
       id="path1507"
       style="opacity:1">
      <title
         id="title1777">Oregon</title>
      <path
         style="color:#000000;font-style:normal;font-variant:normal;font-weight:normal;font-stretch:normal;font-size:medium;line-height:normal;font-family:sans-serif;font-variant-ligatures:normal;font-variant-position:normal;font-variant-caps:normal;font-variant-numeric:normal;font-variant-alternates:normal;font-variant-east-asian:normal;font-feature-settings:normal;font-variation-settings:normal;text-indent:0;text-align:start;text-decoration:none;text-decoration-line:none;text-decoration-style:solid;text-decoration-color:#000000;letter-spacing:normal;word-spacing:normal;text-transform:none;writing-mode:lr-tb;direction:ltr;text-orientation:mixed;dominant-baseline:auto;baseline-shift:baseline;text-anchor:start;white-space:normal;shape-padding:0;shape-margin:0;inline-size:0;clip-rule:nonzero;display:inline;overflow:visible;visibility:visible;isolation:auto;mix-blend-mode:normal;color-interpolation:sRGB;color-interpolation-filters:linearRGB;solid-color:#000000;solid-opacity:1;vector-effect:none;fill:#ffffff;fill-opacity:1;fill-rule:nonzero;stroke:none;stroke-width:0.887589;stroke-linecap:butt;stroke-linejoin:miter;stroke-miterlimit:4;stroke-dasharray:none;stroke-dashoffset:0;stroke-opacity:1.0;color-rendering:auto;image-rendering:auto;shape-rendering:auto;text-rendering:auto;enable-background:accumulate;stop-color:#000000;stop-opacity:1;"
         d="m 72.143003,97.694725 42.868127,-1.194816 -1.28128,-33.931626 1.15388,-5.638809 -0.13953,-1.892307 0.47911,-0.955404 -1.23103,-1.507935 -2.76197,-0.362619 -0.7934,-3.646812 2.097,-5.891472 1.95956,-1.260222 0.8434,-2.339445 -0.45329,-1.348806 1.17563,-1.785213 1.48004,-5.450541 2.49817,-5.080089 -1.1638,-2.628648 -3.71285,-1.853724 -2.19878,-2.7189 -27.654543,0.702042 -2.170833,1.500573 -4.836432,0.468915 -1.749972,-0.358131 -1.01037,1.373367 -2.921118,0.415158 -3.743184,1.46244 -0.6108,0.806898 -3.692733,0.6219 -1.053444,-1.187952 -1.074771,0.10416 -3.473676,2.125326 -1.624434,-0.57552 -1.702374,1.191261 -0.584985,-1.497267 -2.247555,-0.500433 -1.331961,0.17298 -1.110054,-0.713334 -2.50311,0.946386 -1.212588,-0.410217 -1.028844,0.27564 -0.822027,1.047285 -4.554606,1.863645 -6.623319,-2.084682 -0.343305,-5.053821 -1.284819,-3.423225 -3.593508,-2.437071 -3.14919,0.935739 -0.595629,-0.851187 0.06729,-1.120737 -0.783933,-0.525066 -0.834381,0.315549 -0.644445,1.367244 -1.331925,0.17298 -0.681399,-0.828225 -0.880308,0.14409 -0.4623,0.67524 -2.151177,-1.169514 0.987822,3.686577 -0.815904,1.413207 -0.13914,3.253398 0.442605,1.994847 -1.03242,11.57913 -4.126557,29.867262 -1.686786,4.67892 -1.394694,0.28182 0.568143,1.777455 -2.82714,7.281714 0.500889,2.898156 1.155978,0.884826 0.637068,2.034654 -0.7761,1.21875 -0.339501,2.847711 1.395261,4.863855 1.695,2.210637 z"
         id="path1781" />
      <path
         style="color:#000000;font-style:normal;font-variant:normal;font-weight:normal;font-stretch:normal;font-size:medium;line-height:normal;font-family:sans-serif;font-variant-ligatures:normal;font-variant-position:normal;font-variant-caps:normal;font-variant-numeric:normal;font-variant-alternates:normal;font-variant-east-asian:normal;font-feature-settings:normal;font-variation-settings:normal;text-indent:0;text-align:start;text-decoration:none;text-decoration-line:none;text-decoration-style:solid;text-decoration-color:#000000;letter-spacing:normal;word-spacing:normal;text-transform:none;writing-mode:lr-tb;direction:ltr;text-orientation:mixed;dominant-baseline:auto;baseline-shift:baseline;text-anchor:start;white-space:normal;shape-padding:0;shape-margin:0;inline-size:0;clip-rule:nonzero;display:inline;overflow:visible;visibility:visible;isolation:auto;mix-blend-mode:normal;color-interpolation:sRGB;color-interpolation-filters:linearRGB;solid-color:#000000;solid-opacity:1;vector-effect:none;fill:#000000;fill-opacity:1;fill-rule:nonzero;stroke:none;stroke-linecap:butt;stroke-linejoin:miter;stroke-miterlimit:4;stroke-dasharray:none;stroke-dashoffset:0;stroke-opacity:1.0;color-rendering:auto;image-rendering:auto;shape-rendering:auto;text-rendering:auto;enable-background:accumulate;stop-color:#000000;stop-opacity:1;"
         d="M 23.998047 12.986328 L 22.78125 13.447266 L 22.164062 14.755859 L 21.316406 14.867188 L 20.628906 14.03125 L 19.310547 14.246094 L 18.966797 14.748047 L 16.259766 13.275391 L 17.466797 17.783203 L 16.6875 19.132812 L 16.542969 22.552734 L 16.982422 24.537109 L 15.957031 36.037109 L 11.837891 65.847656 L 10.251953 70.248047 L 8.6171875 70.578125 L 9.2871094 72.677734 L 6.4726562 79.927734 L 7.0234375 83.119141 L 8.2070312 84.023438 L 8.7402344 85.726562 L 8.0195312 86.857422 L 7.6582031 89.894531 L 9.1015625 94.925781 L 10.978516 97.373047 L 72.146484 98.138672 L 72.15625 98.138672 L 115.4707 96.931641 L 114.17578 62.605469 L 115.33008 56.958984 L 115.19531 55.126953 L 115.74805 54.023438 L 114.22461 52.15625 L 111.59766 51.8125 L 110.89844 48.59375 L 112.90039 42.964844 L 114.85938 41.705078 L 115.80664 39.078125 L 115.37305 37.787109 L 116.46875 36.125 L 117.95703 30.646484 L 120.52734 25.417969 L 119.21484 22.455078 L 115.44531 20.572266 L 113.16992 17.757812 L 85.164062 18.46875 L 82.978516 19.978516 L 78.324219 20.431641 L 76.361328 20.029297 L 75.292969 21.480469 L 72.505859 21.876953 L 68.597656 23.404297 L 68.017578 24.169922 L 64.740234 24.722656 L 63.701172 23.548828 L 62.298828 23.685547 L 58.917969 25.753906 L 57.279297 25.171875 L 55.851562 26.169922 L 55.384766 24.978516 L 52.830078 24.410156 L 51.582031 24.572266 L 50.419922 23.826172 L 47.857422 24.794922 L 46.667969 24.392578 L 45.367188 24.740234 L 44.525391 25.8125 L 40.228516 27.570312 L 34.046875 25.625 L 33.71875 20.808594 L 32.361328 17.193359 L 28.478516 14.558594 L 25.433594 15.462891 L 25.109375 15 L 25.183594 13.779297 L 23.998047 12.986328 z M 23.884766 13.978516 L 24.267578 14.234375 L 24.205078 15.255859 L 25.072266 16.496094 L 28.328125 15.529297 L 31.630859 17.769531 L 32.841797 20.998047 L 33.201172 26.291016 L 40.267578 28.513672 L 45.078125 26.544922 L 45.882812 25.521484 L 46.638672 25.320312 L 47.873047 25.738281 L 50.316406 24.814453 L 51.375 25.494141 L 52.791016 25.310547 L 54.730469 25.742188 L 55.435547 27.544922 L 57.412109 26.162109 L 59.021484 26.730469 L 62.587891 24.548828 L 63.335938 24.476562 L 64.402344 25.679688 L 68.511719 24.986328 L 69.154297 24.138672 L 72.732422 22.742188 L 75.787109 22.306641 L 76.740234 21.011719 L 78.277344 21.326172 L 83.294922 20.839844 L 85.451172 19.349609 L 112.75391 18.65625 L 114.87695 21.279297 L 118.5332 23.105469 L 119.54688 25.398438 L 117.12305 30.332031 L 115.65039 35.753906 L 114.39453 37.660156 L 114.86719 39.068359 L 114.12695 41.121094 L 112.16602 42.380859 L 109.97656 48.535156 L 110.86328 52.611328 L 113.75977 52.990234 L 114.69727 54.140625 L 114.29297 54.947266 L 114.4375 56.900391 L 113.28516 62.53125 L 114.55078 96.068359 L 72.130859 97.251953 L 72.148438 97.25 L 11.419922 96.492188 L 9.9082031 94.519531 L 8.5605469 89.822266 L 8.8769531 87.164062 L 9.7109375 85.855469 L 8.96875 83.490234 L 7.8398438 82.625 L 7.3886719 80.019531 L 10.228516 72.707031 L 9.7636719 71.251953 L 10.917969 71.019531 L 12.705078 66.060547 L 16.839844 36.136719 L 17.878906 24.478516 L 17.433594 22.474609 L 17.566406 19.386719 L 18.419922 17.908203 L 17.652344 15.042969 L 19.246094 15.910156 L 19.828125 15.060547 L 20.269531 14.988281 L 20.943359 15.810547 L 22.759766 15.574219 L 23.431641 14.150391 L 23.884766 13.978516 z "
         id="path1783" />
    </g>
    <g
       aria-label="Latitude :  44° 23' 59&quot; N 
Longitude: 121° 38' 08&quot; W"
       id="text2494"
       style="font-style:normal;font-variant:normal;font-weight:normal;font-stretch:normal;font-size:2.11667px;line-height:1.25;font-family:'OCR A Extended';-inkscape-font-specification:'OCR A Extended, Normal';font-variant-ligatures:normal;font-variant-caps:normal;font-variant-numeric:normal;font-variant-east-asian:normal;fill:#000000;fill-opacity:1;stroke:none;stroke-width:0.264583">
      <path
         d="m 35.216642,73.242851 v -1.286745 q 0,-0.03514 0.02584,-0.06098 0.02584,-0.02584 0.06098,-0.02584 0.03514,0 0.06098,0.02584 0.02584,0.02584 0.02584,0.06098 v 1.113112 h 0.613917 q 0.03617,0 0.06201,0.02584 0.02687,0.02481 0.02687,0.06098 0,0.03617 -0.02687,0.06201 -0.02584,0.0248 -0.06201,0.0248 z"
         style="font-style:normal;font-variant:normal;font-weight:normal;font-stretch:normal;font-size:2.11667px;font-family:'OCR A Extended';-inkscape-font-specification:'OCR A Extended, Normal';font-variant-ligatures:normal;font-variant-caps:normal;font-variant-numeric:normal;font-variant-east-asian:normal;stroke-width:0.264583"
         id="path1692" />
      <path
         d="m 36.753501,72.616532 h 0.340031 q 0.02791,0 0.08062,0.0124 l -0.0021,-0.12299 q 0,-0.03617 -0.02584,-0.06098 -0.0248,-0.02584 -0.06098,-0.02584 h -0.329696 q -0.03514,0 -0.06098,-0.02584 -0.02584,-0.02584 -0.02584,-0.06098 0,-0.03617 0.02481,-0.06098 0.02584,-0.02584 0.06201,-0.02584 h 0.329696 q 0.107487,0 0.182935,0.07545 0.07648,0.07545 0.07958,0.185002 l 0.0217,0.650091 q 0,0.03617 -0.02584,0.06201 -0.02584,0.0248 -0.06098,0.0248 -0.03721,0 -0.06305,-0.0248 -0.02584,-0.02584 -0.02584,-0.06201 l -0.146761,0.08682 h -0.293523 q -0.109554,0 -0.186035,-0.07648 -0.07648,-0.07648 -0.07648,-0.186035 v -0.101286 q 0,-0.108521 0.07648,-0.185002 0.07751,-0.07751 0.186035,-0.07751 z m 0.434083,0.337964 -0.0052,-0.07338 q -0.001,-0.03721 -0.02584,-0.06201 -0.02481,-0.02481 -0.06098,-0.02481 h -0.342098 q -0.03617,0 -0.06201,0.02584 -0.02481,0.02481 -0.02481,0.06098 v 0.09715 q 0,0.03514 0.02584,0.06098 0.02584,0.02584 0.06098,0.02584 h 0.244947 z"
         style="font-style:normal;font-variant:normal;font-weight:normal;font-stretch:normal;font-size:2.11667px;font-family:'OCR A Extended';-inkscape-font-specification:'OCR A Extended, Normal';font-variant-ligatures:normal;font-variant-caps:normal;font-variant-numeric:normal;font-variant-east-asian:normal;stroke-width:0.264583"
         id="path1694" />
      <path
         d="m 38.383378,73.242851 h -0.173633 q -0.107487,0 -0.185002,-0.07648 -0.07751,-0.07648 -0.07751,-0.183968 v -0.563274 h -0.08888 q -0.03617,0 -0.06201,-0.02481 -0.0248,-0.02481 -0.0248,-0.06201 0,-0.03617 0.0248,-0.06098 0.02584,-0.02584 0.06201,-0.02584 h 0.09095 v -0.212908 q 0,-0.03617 0.02481,-0.06098 0.02584,-0.02584 0.06201,-0.02584 0.03411,0 0.05994,0.02584 0.02687,0.02584 0.02687,0.06098 v 0.212908 h 0.349334 q 0.03514,0 0.06098,0.02584 0.02584,0.02584 0.02584,0.06098 0,0.03617 -0.02584,0.06201 -0.02584,0.02481 -0.06098,0.02481 h -0.351401 v 0.563274 q 0,0.03514 0.02584,0.06098 0.02687,0.02584 0.06304,0.02584 h 0.169499 q 0.06925,0 0.09198,-0.07441 0.02274,-0.07545 0.08785,-0.07545 0.03824,0 0.06201,0.02584 0.02481,0.0248 0.02481,0.06305 0,0.07855 -0.07441,0.157096 -0.07338,0.07752 -0.188103,0.07752 z"
         style="font-style:normal;font-variant:normal;font-weight:normal;font-stretch:normal;font-size:2.11667px;font-family:'OCR A Extended';-inkscape-font-specification:'OCR A Extended, Normal';font-variant-ligatures:normal;font-variant-caps:normal;font-variant-numeric:normal;font-variant-east-asian:normal;stroke-width:0.264583"
         id="path1696" />
      <path
         d="m 39.399338,71.792808 h 0.09095 q 0.03617,0 0.06098,0.02584 0.02584,0.0248 0.02584,0.06098 v 0.07441 q 0,0.03617 -0.02584,0.06305 -0.0248,0.02584 -0.06098,0.02584 h -0.09302 q -0.03721,0 -0.06305,-0.02687 -0.02481,-0.02687 -0.02377,-0.05994 l 0.0021,-0.07648 q 0,-0.03617 0.02481,-0.06098 0.02584,-0.02584 0.06201,-0.02584 z m 0.353468,1.447976 h -0.529168 q -0.03617,0 -0.06201,-0.02481 -0.0248,-0.02584 -0.0248,-0.06201 0,-0.03514 0.0248,-0.06098 0.02584,-0.02584 0.06201,-0.02584 h 0.177767 v -0.648023 h -0.1757 q -0.03617,0 -0.06201,-0.02584 -0.0248,-0.02584 -0.0248,-0.06098 0,-0.03617 0.0248,-0.06201 0.02584,-0.02687 0.06201,-0.02687 h 0.264584 q 0.03617,0 0.06098,0.02687 0.02584,0.02584 0.02584,0.06201 v 0.73484 h 0.173633 q 0.03617,0 0.06201,0.02584 0.02687,0.02481 0.02687,0.06098 0,0.03617 -0.02584,0.06201 -0.02584,0.02481 -0.06098,0.02481 z"
         style="font-style:normal;font-variant:normal;font-weight:normal;font-stretch:normal;font-size:2.11667px;font-family:'OCR A Extended';-inkscape-font-specification:'OCR A Extended, Normal';font-variant-ligatures:normal;font-variant-caps:normal;font-variant-numeric:normal;font-variant-east-asian:normal;stroke-width:0.264583"
         id="path1698" />
      <path
         d="m 40.940332,73.242851 h -0.173633 q -0.107487,0 -0.185002,-0.07648 -0.07751,-0.07648 -0.07751,-0.183968 v -0.563274 h -0.08888 q -0.03617,0 -0.06201,-0.02481 -0.02481,-0.02481 -0.02481,-0.06201 0,-0.03617 0.02481,-0.06098 0.02584,-0.02584 0.06201,-0.02584 h 0.09095 v -0.212908 q 0,-0.03617 0.02481,-0.06098 0.02584,-0.02584 0.06201,-0.02584 0.03411,0 0.05994,0.02584 0.02687,0.02584 0.02687,0.06098 v 0.212908 h 0.349333 q 0.03514,0 0.06098,0.02584 0.02584,0.02584 0.02584,0.06098 0,0.03617 -0.02584,0.06201 -0.02584,0.02481 -0.06098,0.02481 h -0.3514 v 0.563274 q 0,0.03514 0.02584,0.06098 0.02687,0.02584 0.06305,0.02584 h 0.169499 q 0.06925,0 0.09198,-0.07441 0.02274,-0.07545 0.08785,-0.07545 0.03824,0 0.06201,0.02584 0.0248,0.0248 0.0248,0.06305 0,0.07855 -0.07441,0.157096 -0.07338,0.07752 -0.188102,0.07752 z"
         style="font-style:normal;font-variant:normal;font-weight:normal;font-stretch:normal;font-size:2.11667px;font-family:'OCR A Extended';-inkscape-font-specification:'OCR A Extended, Normal';font-variant-ligatures:normal;font-variant-caps:normal;font-variant-numeric:normal;font-variant-east-asian:normal;stroke-width:0.264583"
         id="path1700" />
      <path
         d="m 42.021404,73.067151 0.292489,-0.186035 v -0.548805 q 0,-0.03617 0.02481,-0.06201 0.02584,-0.02687 0.06201,-0.02687 0.03617,0 0.06098,0.02687 0.02584,0.02584 0.02584,0.06201 v 0.823724 q 0,0.03514 -0.02584,0.06098 -0.02584,0.02584 -0.06098,0.02584 -0.03514,0 -0.06098,-0.02584 -0.02584,-0.02584 -0.02584,-0.06098 v -0.06821 l -0.150895,0.09819 q -0.08888,0.05684 -0.179834,0.05684 h -0.08062 q -0.106453,0 -0.182935,-0.07441 -0.07648,-0.07441 -0.08165,-0.181901 l -0.0248,-0.654225 q -0.0021,-0.03411 0.02377,-0.05994 0.02687,-0.02687 0.06305,-0.02687 0.03514,0 0.05994,0.02584 0.02584,0.02584 0.02687,0.06098 l 0.02274,0.641822 q 0.0031,0.09302 0.106454,0.09302 z"
         style="font-style:normal;font-variant:normal;font-weight:normal;font-stretch:normal;font-size:2.11667px;font-family:'OCR A Extended';-inkscape-font-specification:'OCR A Extended, Normal';font-variant-ligatures:normal;font-variant-caps:normal;font-variant-numeric:normal;font-variant-east-asian:normal;stroke-width:0.264583"
         id="path1702" />
      <path
         d="m 43.586169,72.366418 v -0.410312 q 0,-0.03617 0.02481,-0.06098 0.02481,-0.02584 0.05994,-0.02584 0.03617,0 0.06201,0.02584 0.02687,0.02481 0.02687,0.06098 v 1.199929 q 0,0.03617 -0.02584,0.06201 -0.02584,0.0248 -0.06098,0.0248 -0.03721,0 -0.06201,-0.0248 -0.02481,-0.02584 -0.02481,-0.06201 v -0.03824 q -0.127124,0.125057 -0.237712,0.125057 h -0.147795 q -0.08888,0 -0.177767,-0.07648 l -0.07235,-0.06098 q -0.02481,-0.02377 -0.04754,-0.07958 -0.0217,-0.05581 -0.0217,-0.104387 v -0.353467 q 0,-0.05891 0.0248,-0.113688 0.02481,-0.05581 0.05788,-0.08372 l 0.07131,-0.06098 q 0.07648,-0.06615 0.179834,-0.06615 h 0.125057 q 0.10232,0 0.186035,0.07235 z m -0.252181,0.05271 h -0.120923 q -0.03824,0 -0.06925,0.02791 l -0.05581,0.04858 q -0.02894,0.02584 -0.02894,0.06615 v 0.367937 q 0,0.03617 0.03411,0.06511 l 0.05684,0.04858 q 0.02687,0.02377 0.05685,0.02377 h 0.141593 q 0.02791,0 0.06615,-0.03204 l 0.13746,-0.113689 q 0.03411,-0.02997 0.03411,-0.07441 v -0.188102 q 0,-0.06305 -0.03617,-0.09302 l -0.141594,-0.120923 q -0.02791,-0.02584 -0.07441,-0.02584 z"
         style="font-style:normal;font-variant:normal;font-weight:normal;font-stretch:normal;font-size:2.11667px;font-family:'OCR A Extended';-inkscape-font-specification:'OCR A Extended, Normal';font-variant-ligatures:normal;font-variant-caps:normal;font-variant-numeric:normal;font-variant-east-asian:normal;stroke-width:0.264583"
         id="path1704" />
      <path
         d="m 45.040346,72.57209 v 0.209807 q 0,0.03514 -0.02584,0.06098 -0.02584,0.02584 -0.06098,0.02584 h -0.613917 v 0.05064 q 0,0.04444 0.03824,0.07545 l 0.05064,0.04237 q 0.04134,0.03204 0.07855,0.03204 h 0.446486 q 0.03514,0 0.06098,0.02584 0.02584,0.02481 0.02584,0.06098 0,0.03514 -0.02687,0.06098 -0.02584,0.02584 -0.05994,0.02584 h -0.457854 q -0.04548,0 -0.09612,-0.0186 -0.04961,-0.01964 -0.07338,-0.04031 l -0.07751,-0.06821 q -0.03617,-0.02894 -0.06098,-0.08062 -0.02377,-0.05168 -0.02377,-0.09508 v -0.397909 q 0,-0.03411 0.02584,-0.09198 0.02687,-0.05788 0.06718,-0.08992 l 0.07235,-0.05684 q 0.07131,-0.05788 0.15813,-0.05788 h 0.243914 q 0.09198,0 0.173633,0.07648 l 0.06511,0.06201 q 0.07028,0.06305 0.07028,0.188102 z m -0.698666,-0.01344 v 0.134359 h 0.5271 V 72.57209 q 0,-0.04858 -0.02997,-0.07441 l -0.05064,-0.04444 q -0.03927,-0.03204 -0.07028,-0.03204 H 44.49981 q -0.04031,0 -0.07338,0.02791 l -0.05064,0.04237 q -0.03411,0.02584 -0.03411,0.06718 z"
         style="font-style:normal;font-variant:normal;font-weight:normal;font-stretch:normal;font-size:2.11667px;font-family:'OCR A Extended';-inkscape-font-specification:'OCR A Extended, Normal';font-variant-ligatures:normal;font-variant-caps:normal;font-variant-numeric:normal;font-variant-east-asian:normal;stroke-width:0.264583"
         id="path1706" />
      <path
         d="m 47.072266,72.095633 h 0.173633 q 0.03721,0 0.06305,0.0279 0.02584,0.02791 0.02584,0.05891 v 0.149862 q 0,0.03514 -0.02687,0.06098 -0.02584,0.02584 -0.05994,0.02584 h -0.177767 q -0.03617,0 -0.06098,-0.02481 -0.02377,-0.02481 -0.02377,-0.06201 v -0.149862 q 0,-0.03514 0.0248,-0.06098 0.02584,-0.02584 0.06201,-0.02584 z m 0,0.599447 h 0.173633 q 0.03617,0 0.06201,0.02584 0.02687,0.02481 0.02687,0.06098 v 0.147795 q 0,0.03617 -0.02584,0.06305 -0.02584,0.02584 -0.06098,0.02584 h -0.177767 q -0.03617,0 -0.06098,-0.02584 -0.02377,-0.02584 -0.02377,-0.06098 v -0.149862 q 0,-0.03721 0.0248,-0.06201 0.02584,-0.02481 0.06201,-0.02481 z"
         style="font-style:normal;font-variant:normal;font-weight:normal;font-stretch:normal;font-size:2.11667px;font-family:'OCR A Extended';-inkscape-font-specification:'OCR A Extended, Normal';font-variant-ligatures:normal;font-variant-caps:normal;font-variant-numeric:normal;font-variant-east-asian:normal;stroke-width:0.264583"
         id="path1708" />
      <path
         d="m 51.125772,73.153968 v -0.361736 h -0.522966 v -0.836126 q 0,-0.03617 0.02584,-0.06201 0.02687,-0.02687 0.06304,-0.02687 0.03514,0 0.06098,0.02687 0.02584,0.02584 0.02584,0.06201 v 0.660426 h 0.347266 v -0.508497 q 0,-0.03617 0.02481,-0.06201 0.02584,-0.02687 0.06201,-0.02687 0.03617,0 0.06098,0.02687 0.02584,0.02584 0.02584,0.06201 v 0.508497 q 0.03617,0 0.06098,0.02584 0.02584,0.02481 0.02584,0.06098 0,0.03617 -0.02584,0.06201 -0.02481,0.02481 -0.06098,0.02481 v 0.363803 q 0,0.03617 -0.02584,0.06201 -0.02584,0.02481 -0.06098,0.02481 -0.03617,0 -0.06201,-0.02481 -0.02481,-0.02584 -0.02481,-0.06201 z"
         style="font-style:normal;font-variant:normal;font-weight:normal;font-stretch:normal;font-size:2.11667px;font-family:'OCR A Extended';-inkscape-font-specification:'OCR A Extended, Normal';font-variant-ligatures:normal;font-variant-caps:normal;font-variant-numeric:normal;font-variant-east-asian:normal;stroke-width:0.264583"
         id="path1710" />
      <path
         d="m 52.404249,73.153968 v -0.361736 h -0.522966 v -0.836126 q 0,-0.03617 0.02584,-0.06201 0.02687,-0.02687 0.06305,-0.02687 0.03514,0 0.06098,0.02687 0.02584,0.02584 0.02584,0.06201 v 0.660426 h 0.347266 v -0.508497 q 0,-0.03617 0.02481,-0.06201 0.02584,-0.02687 0.06201,-0.02687 0.03617,0 0.06098,0.02687 0.02584,0.02584 0.02584,0.06201 v 0.508497 q 0.03617,0 0.06098,0.02584 0.02584,0.02481 0.02584,0.06098 0,0.03617 -0.02584,0.06201 -0.02481,0.02481 -0.06098,0.02481 v 0.363803 q 0,0.03617 -0.02584,0.06201 -0.02584,0.02481 -0.06098,0.02481 -0.03617,0 -0.06201,-0.02481 -0.02481,-0.02584 -0.02481,-0.06201 z"
         style="font-style:normal;font-variant:normal;font-weight:normal;font-stretch:normal;font-size:2.11667px;font-family:'OCR A Extended';-inkscape-font-specification:'OCR A Extended, Normal';font-variant-ligatures:normal;font-variant-caps:normal;font-variant-numeric:normal;font-variant-east-asian:normal;stroke-width:0.264583"
         id="path1712" />
      <path
         d="m 53.947309,72.339546 q 0,0.115755 -0.110587,0.216008 -0.109555,0.09922 -0.226344,0.09922 h -0.118856 q -0.118855,0 -0.227376,-0.100253 -0.108521,-0.101286 -0.108521,-0.214974 v -0.15503 q 0,-0.116789 0.107487,-0.216008 0.107487,-0.09922 0.22841,-0.09922 h 0.118856 q 0.118856,0 0.227377,0.09818 0.109554,0.09819 0.109554,0.217041 z m -0.173633,-0.0072 v -0.139526 q 0,-0.05064 -0.03204,-0.07648 l -0.06098,-0.04858 q -0.03101,-0.0248 -0.07235,-0.0248 h -0.09508 q -0.05891,0 -0.09095,0.02687 l -0.05994,0.05168 q -0.03101,0.02584 -0.03101,0.06925 v 0.139527 q 0,0.04858 0.03411,0.07648 l 0.06511,0.05478 q 0.0217,0.01964 0.06098,0.01964 h 0.116789 q 0.04444,0 0.08062,-0.03204 l 0.05271,-0.04651 q 0.03204,-0.02481 0.03204,-0.07028 z"
         style="font-style:normal;font-variant:normal;font-weight:normal;font-stretch:normal;font-size:2.11667px;font-family:'OCR A Extended';-inkscape-font-specification:'OCR A Extended, Normal';font-variant-ligatures:normal;font-variant-caps:normal;font-variant-numeric:normal;font-variant-east-asian:normal;stroke-width:0.264583"
         id="path1714" />
      <path
         d="m 56.459821,73.240784 h -0.789617 v -0.599447 q 0,-0.07235 0.05064,-0.124024 0.05168,-0.05168 0.12299,-0.05168 h 0.5271 v -0.422714 h -0.620118 q -0.03721,0 -0.06201,-0.02481 -0.0248,-0.02584 -0.0248,-0.06201 0,-0.03617 0.0248,-0.06098 0.02481,-0.02584 0.06201,-0.02584 h 0.620118 q 0.07235,0 0.124024,0.05168 0.05168,0.05064 0.05168,0.121957 v 0.422714 q 0,0.07338 -0.05168,0.125057 -0.05168,0.05064 -0.124024,0.05064 h -0.5271 v 0.425814 h 0.615984 q 0.03514,0 0.06098,0.02584 0.02584,0.02481 0.02584,0.06098 0,0.03617 -0.02584,0.06201 -0.02584,0.02481 -0.06098,0.02481 z"
         style="font-style:normal;font-variant:normal;font-weight:normal;font-stretch:normal;font-size:2.11667px;font-family:'OCR A Extended';-inkscape-font-specification:'OCR A Extended, Normal';font-variant-ligatures:normal;font-variant-caps:normal;font-variant-numeric:normal;font-variant-east-asian:normal;stroke-width:0.264583"
         id="path1716" />
      <path
         d="m 57.825114,72.042923 v 0.325562 q 0,0.113688 -0.07028,0.183968 0.07235,0.08061 0.07235,0.1757 v 0.338998 q 0,0.07131 -0.05168,0.12299 -0.05168,0.05064 -0.124024,0.05064 h -0.613917 q -0.03617,0 -0.06201,-0.02481 -0.0248,-0.02584 -0.0248,-0.06201 0,-0.03617 0.0248,-0.06098 0.02584,-0.02584 0.06201,-0.02584 h 0.61185 v -0.338998 q 0,-0.03617 -0.02584,-0.06201 -0.02481,-0.02687 -0.06098,-0.02687 h -0.349334 q -0.03617,0 -0.06201,-0.02481 -0.0248,-0.02481 -0.0248,-0.06201 0,-0.03617 0.0248,-0.06098 0.02584,-0.02584 0.06201,-0.02584 h 0.351401 q 0.03514,0 0.06098,-0.02481 0.02584,-0.02584 0.02584,-0.06201 v -0.335897 h -0.620118 q -0.03617,0 -0.06201,-0.02481 -0.02481,-0.02584 -0.02481,-0.06201 0,-0.03617 0.02481,-0.06098 0.02584,-0.02584 0.06201,-0.02584 h 0.620118 q 0.07235,0 0.12299,0.05168 0.05064,0.05064 0.05064,0.121957 z"
         style="font-style:normal;font-variant:normal;font-weight:normal;font-stretch:normal;font-size:2.11667px;font-family:'OCR A Extended';-inkscape-font-specification:'OCR A Extended, Normal';font-variant-ligatures:normal;font-variant-caps:normal;font-variant-numeric:normal;font-variant-east-asian:normal;stroke-width:0.264583"
         id="path1718" />
      <path
         d="m 58.584759,71.86929 h 0.171566 q 0.03617,0 0.06201,0.02687 0.02584,0.02584 0.02584,0.06098 0,0.01137 -0.0031,0.0217 l -0.173633,0.59738 q -0.02067,0.06511 -0.08475,0.06511 -0.03824,0 -0.06408,-0.02687 -0.02481,-0.02687 -0.02481,-0.06615 v -0.581878 q 0,-0.04134 0.02377,-0.06925 0.02481,-0.0279 0.06718,-0.0279 z"
         style="font-style:normal;font-variant:normal;font-weight:normal;font-stretch:normal;font-size:2.11667px;font-family:'OCR A Extended';-inkscape-font-specification:'OCR A Extended, Normal';font-variant-ligatures:normal;font-variant-caps:normal;font-variant-numeric:normal;font-variant-east-asian:normal;stroke-width:0.264583"
         id="path1720" />
      <path
         d="m 61.103472,73.067151 h 0.402043 V 72.641337 H 60.980481 V 71.86929 h 0.61185 q 0.03514,0 0.06098,0.02584 0.02584,0.02584 0.02584,0.06098 0,0.03617 -0.02584,0.06201 -0.02481,0.02481 -0.06098,0.02481 h -0.436149 v 0.424781 h 0.349333 q 0.07028,0 0.121956,0.05168 0.05168,0.05168 0.05168,0.121957 v 0.425814 q 0,0.07131 -0.05168,0.12299 -0.05064,0.05064 -0.121956,0.05064 h -0.402043 q -0.05374,0 -0.114722,-0.02584 l -0.131259,-0.05478 q -0.05271,-0.0217 -0.05271,-0.08268 0,-0.03617 0.02377,-0.06098 0.02377,-0.02584 0.05788,-0.02584 0.02584,0 0.05995,0.0155 l 0.114722,0.04858 q 0.02067,0.0124 0.04237,0.0124 z"
         style="font-style:normal;font-variant:normal;font-weight:normal;font-stretch:normal;font-size:2.11667px;font-family:'OCR A Extended';-inkscape-font-specification:'OCR A Extended, Normal';font-variant-ligatures:normal;font-variant-caps:normal;font-variant-numeric:normal;font-variant-east-asian:normal;stroke-width:0.264583"
         id="path1722" />
      <path
         d="m 62.852205,73.238717 h -0.08682 q -0.03514,0 -0.06098,-0.02481 -0.02584,-0.02584 -0.02584,-0.06201 0,-0.03617 0.02481,-0.06098 0.02584,-0.02584 0.06201,-0.02584 v -0.573609 h -0.61185 q -0.03514,0 -0.06098,-0.02584 -0.02584,-0.02584 -0.02584,-0.06098 v -0.450619 q 0,-0.03514 0.02584,-0.06098 0.02584,-0.02584 0.06098,-0.02584 h 0.698667 q 0.03514,0 0.06098,0.02584 0.02584,0.02584 0.02584,0.06098 v 1.197862 q 0,0.03617 -0.02584,0.06201 -0.0248,0.02481 -0.06098,0.02481 z m -0.08475,-0.922942 v -0.272852 h -0.5271 v 0.272852 z"
         style="font-style:normal;font-variant:normal;font-weight:normal;font-stretch:normal;font-size:2.11667px;font-family:'OCR A Extended';-inkscape-font-specification:'OCR A Extended, Normal';font-variant-ligatures:normal;font-variant-caps:normal;font-variant-numeric:normal;font-variant-east-asian:normal;stroke-width:0.264583"
         id="path1724" />
      <path
         d="m 63.338997,71.867223 h 0.876434 v 0.08062 l -0.08682,0.467156 q -0.0155,0.07441 -0.08888,0.07441 -0.07235,0 -0.08682,-0.07441 L 63.8785,72.042923 h -0.201539 l -0.07545,0.374138 q -0.01757,0.07441 -0.08682,0.07441 -0.07545,0 -0.08888,-0.07441 l -0.08682,-0.469223 z"
         style="font-style:normal;font-variant:normal;font-weight:normal;font-stretch:normal;font-size:2.11667px;font-family:'OCR A Extended';-inkscape-font-specification:'OCR A Extended, Normal';font-variant-ligatures:normal;font-variant-caps:normal;font-variant-numeric:normal;font-variant-east-asian:normal;stroke-width:0.264583"
         id="path1726" />
      <path
         d="m 66.774453,71.958173 v 1.284678 H 66.540875 L 66.07372,72.176248 v 0.979787 q 0,0.03617 -0.02584,0.06201 -0.0248,0.0248 -0.06098,0.0248 -0.03617,0 -0.06201,-0.0248 -0.0248,-0.02584 -0.0248,-0.06201 V 71.86929 h 0.230477 l 0.468189,1.064536 v -0.975653 q 0,-0.03617 0.02584,-0.06201 0.02687,-0.02687 0.06305,-0.02687 0.03617,0 0.06098,0.02584 0.02584,0.02584 0.02584,0.06305 z"
         style="font-style:normal;font-variant:normal;font-weight:normal;font-stretch:normal;font-size:2.11667px;font-family:'OCR A Extended';-inkscape-font-specification:'OCR A Extended, Normal';font-variant-ligatures:normal;font-variant-caps:normal;font-variant-numeric:normal;font-variant-east-asian:normal;stroke-width:0.264583"
         id="path1728" />
      <path
         d="m 35.216642,75.888689 v -1.286746 q 0,-0.03514 0.02584,-0.06098 0.02584,-0.02584 0.06098,-0.02584 0.03514,0 0.06098,0.02584 0.02584,0.02584 0.02584,0.06098 v 1.113113 h 0.613917 q 0.03617,0 0.06201,0.02584 0.02687,0.02481 0.02687,0.06098 0,0.03617 -0.02687,0.06201 -0.02584,0.02481 -0.06201,0.02481 z"
         style="font-style:normal;font-variant:normal;font-weight:normal;font-stretch:normal;font-size:2.11667px;font-family:'OCR A Extended';-inkscape-font-specification:'OCR A Extended, Normal';font-variant-ligatures:normal;font-variant-caps:normal;font-variant-numeric:normal;font-variant-east-asian:normal;stroke-width:0.264583"
         id="path1730" />
      <path
         d="m 37.369485,75.204492 v 0.366903 q 0,0.116789 -0.110588,0.216008 -0.109554,0.09922 -0.226343,0.09922 h -0.203605 q -0.118856,0 -0.227377,-0.100253 -0.108521,-0.101286 -0.108521,-0.214974 v -0.366903 q 0,-0.113689 0.10542,-0.213941 0.106454,-0.101286 0.230478,-0.101286 h 0.203605 q 0.116789,-0.0021 0.226343,0.09715 0.110588,0.09922 0.110588,0.218075 z m -0.700734,0.0072 v 0.351401 q 0,0.04754 0.03411,0.07545 l 0.06511,0.05581 q 0.02171,0.0186 0.06098,0.0186 h 0.201538 q 0.04444,0 0.08062,-0.03204 l 0.05271,-0.04651 q 0.03204,-0.02481 0.03204,-0.06925 v -0.351401 q 0,-0.05168 -0.03204,-0.07648 l -0.06098,-0.04858 q -0.03101,-0.02584 -0.07235,-0.02584 h -0.179834 q -0.05891,0 -0.09095,0.0279 l -0.05891,0.05064 q -0.03204,0.02687 -0.03204,0.07028 z"
         style="font-style:normal;font-variant:normal;font-weight:normal;font-stretch:normal;font-size:2.11667px;font-family:'OCR A Extended';-inkscape-font-specification:'OCR A Extended, Normal';font-variant-ligatures:normal;font-variant-caps:normal;font-variant-numeric:normal;font-variant-east-asian:normal;stroke-width:0.264583"
         id="path1732" />
      <path
         d="m 38.183907,75.09287 -0.236679,0.153996 v 0.555006 q 0,0.03514 -0.02584,0.06098 -0.02584,0.02584 -0.06098,0.02584 -0.03514,0 -0.06098,-0.02584 -0.02584,-0.02584 -0.02584,-0.06098 v -0.823724 q 0,-0.03617 0.02481,-0.06201 0.02584,-0.02687 0.06201,-0.02687 0.03514,0 0.06098,0.02687 0.02584,0.02584 0.02584,0.06201 v 0.05788 l 0.15813,-0.09612 q 0.07958,-0.05064 0.179835,-0.05064 h 0.08062 q 0.103353,0 0.178801,0.07338 0.07545,0.07338 0.07958,0.180867 l 0.02377,0.658359 q 0.001,0.03514 -0.02481,0.06098 -0.02584,0.02584 -0.06201,0.02584 -0.03411,0 -0.05994,-0.02274 -0.02584,-0.02377 -0.02687,-0.06408 l -0.02584,-0.648023 q -0.0031,-0.09095 -0.09508,-0.09095 h -0.08475 q -0.03927,0 -0.08475,0.02997 z"
         style="font-style:normal;font-variant:normal;font-weight:normal;font-stretch:normal;font-size:2.11667px;font-family:'OCR A Extended';-inkscape-font-specification:'OCR A Extended, Normal';font-variant-ligatures:normal;font-variant-caps:normal;font-variant-numeric:normal;font-variant-east-asian:normal;stroke-width:0.264583"
         id="path1734" />
      <path
         d="m 39.597776,76.26076 h -0.376205 q -0.03617,0 -0.06201,-0.02481 -0.0248,-0.02481 -0.0248,-0.06201 0,-0.03617 0.0248,-0.06098 0.02584,-0.02481 0.06201,-0.02481 h 0.376205 q 0.03411,0 0.06408,-0.02584 l 0.05891,-0.05064 q 0.02997,-0.02274 0.02997,-0.05994 V 75.68715 q -0.121957,0.12299 -0.237712,0.12299 h -0.133326 q -0.103353,0 -0.186035,-0.07131 l -0.06511,-0.05788 q -0.03204,-0.02687 -0.05581,-0.07855 -0.02274,-0.05168 -0.02274,-0.101286 v -0.287322 q 0,-0.06098 0.02274,-0.115755 0.02377,-0.05478 0.05581,-0.08165 l 0.07131,-0.06098 q 0.07648,-0.06615 0.179834,-0.06615 h 0.125057 q 0.10232,0 0.186036,0.07235 l 0.05995,0.05064 -0.0021,-0.03411 q 0,-0.03514 0.02584,-0.06098 0.02584,-0.02584 0.06098,-0.02584 0.03617,0 0.06201,0.02584 0.02687,0.02481 0.02687,0.06098 v 0.973586 q 0,0.110588 -0.08888,0.189136 l -0.07028,0.06098 q -0.02687,0.02377 -0.07648,0.04134 -0.04858,0.01757 -0.09095,0.01757 z m -0.09922,-1.197862 h -0.116789 q -0.03824,0 -0.07338,0.02997 l -0.05374,0.04444 q -0.03101,0.02584 -0.03101,0.07028 v 0.289389 q 0,0.03514 0.03411,0.06615 l 0.05684,0.05064 q 0.02687,0.02274 0.05684,0.02274 h 0.141594 q 0.03101,0 0.06821,-0.03101 l 0.137459,-0.116789 q 0.03204,-0.02791 0.03204,-0.06821 v -0.131258 q 0,-0.04754 -0.03617,-0.07752 l -0.141594,-0.120923 q -0.02997,-0.0279 -0.07441,-0.0279 z"
         style="font-style:normal;font-variant:normal;font-weight:normal;font-stretch:normal;font-size:2.11667px;font-family:'OCR A Extended';-inkscape-font-specification:'OCR A Extended, Normal';font-variant-ligatures:normal;font-variant-caps:normal;font-variant-numeric:normal;font-variant-east-asian:normal;stroke-width:0.264583"
         id="path1736" />
      <path
         d="m 40.677815,74.438646 h 0.09095 q 0.03617,0 0.06098,0.02584 0.02584,0.02481 0.02584,0.06098 v 0.07441 q 0,0.03617 -0.02584,0.06305 -0.02481,0.02584 -0.06098,0.02584 h -0.09302 q -0.03721,0 -0.06304,-0.02687 -0.02481,-0.02687 -0.02377,-0.05994 l 0.0021,-0.07648 q 0,-0.03617 0.0248,-0.06098 0.02584,-0.02584 0.06201,-0.02584 z m 0.353467,1.447976 h -0.529167 q -0.03617,0 -0.06201,-0.02481 -0.02481,-0.02584 -0.02481,-0.06201 0,-0.03514 0.02481,-0.06098 0.02584,-0.02584 0.06201,-0.02584 h 0.177767 v -0.648023 h -0.1757 q -0.03617,0 -0.06201,-0.02584 -0.02481,-0.02584 -0.02481,-0.06098 0,-0.03617 0.02481,-0.06201 0.02584,-0.02687 0.06201,-0.02687 h 0.264584 q 0.03617,0 0.06098,0.02687 0.02584,0.02584 0.02584,0.06201 v 0.73484 h 0.173633 q 0.03617,0 0.06201,0.02584 0.02687,0.0248 0.02687,0.06098 0,0.03617 -0.02584,0.06201 -0.02584,0.02481 -0.06098,0.02481 z"
         style="font-style:normal;font-variant:normal;font-weight:normal;font-stretch:normal;font-size:2.11667px;font-family:'OCR A Extended';-inkscape-font-specification:'OCR A Extended, Normal';font-variant-ligatures:normal;font-variant-caps:normal;font-variant-numeric:normal;font-variant-east-asian:normal;stroke-width:0.264583"
         id="path1738" />
      <path
         d="m 42.218808,75.888689 h -0.173633 q -0.107487,0 -0.185002,-0.07648 -0.07751,-0.07648 -0.07751,-0.183968 v -0.563274 h -0.08888 q -0.03617,0 -0.06201,-0.02481 -0.0248,-0.0248 -0.0248,-0.06201 0,-0.03617 0.0248,-0.06098 0.02584,-0.02584 0.06201,-0.02584 h 0.09095 v -0.212907 q 0,-0.03617 0.0248,-0.06098 0.02584,-0.02584 0.06201,-0.02584 0.03411,0 0.05994,0.02584 0.02687,0.02584 0.02687,0.06098 v 0.212907 h 0.349333 q 0.03514,0 0.06098,0.02584 0.02584,0.02584 0.02584,0.06098 0,0.03617 -0.02584,0.06201 -0.02584,0.02481 -0.06098,0.02481 h -0.3514 v 0.563274 q 0,0.03514 0.02584,0.06098 0.02687,0.02584 0.06305,0.02584 h 0.169499 q 0.06925,0 0.09199,-0.07442 0.02274,-0.07545 0.08785,-0.07545 0.03824,0 0.06201,0.02584 0.02481,0.02481 0.02481,0.06305 0,0.07855 -0.07441,0.157097 -0.07338,0.07752 -0.188103,0.07752 z"
         style="font-style:normal;font-variant:normal;font-weight:normal;font-stretch:normal;font-size:2.11667px;font-family:'OCR A Extended';-inkscape-font-specification:'OCR A Extended, Normal';font-variant-ligatures:normal;font-variant-caps:normal;font-variant-numeric:normal;font-variant-east-asian:normal;stroke-width:0.264583"
         id="path1740" />
      <path
         d="m 43.299881,75.712988 0.292489,-0.186035 v -0.548805 q 0,-0.03617 0.02481,-0.06201 0.02584,-0.02687 0.06201,-0.02687 0.03617,0 0.06098,0.02687 0.02584,0.02584 0.02584,0.06201 v 0.823724 q 0,0.03514 -0.02584,0.06098 -0.02584,0.02584 -0.06098,0.02584 -0.03514,0 -0.06098,-0.02584 -0.02584,-0.02584 -0.02584,-0.06098 v -0.06821 l -0.150895,0.09819 q -0.08888,0.05684 -0.179834,0.05684 h -0.08062 q -0.106453,0 -0.182934,-0.07442 -0.07648,-0.07441 -0.08165,-0.181901 l -0.02481,-0.654225 q -0.0021,-0.03411 0.02377,-0.05994 0.02687,-0.02687 0.06305,-0.02687 0.03514,0 0.05994,0.02584 0.02584,0.02584 0.02687,0.06098 l 0.02274,0.641823 q 0.0031,0.09302 0.106453,0.09302 z"
         style="font-style:normal;font-variant:normal;font-weight:normal;font-stretch:normal;font-size:2.11667px;font-family:'OCR A Extended';-inkscape-font-specification:'OCR A Extended, Normal';font-variant-ligatures:normal;font-variant-caps:normal;font-variant-numeric:normal;font-variant-east-asian:normal;stroke-width:0.264583"
         id="path1742" />
      <path
         d="m 44.864646,75.012255 v -0.410312 q 0,-0.03617 0.02481,-0.06098 0.0248,-0.02584 0.05994,-0.02584 0.03617,0 0.06201,0.02584 0.02687,0.02481 0.02687,0.06098 v 1.199929 q 0,0.03617 -0.02584,0.06201 -0.02584,0.02481 -0.06098,0.02481 -0.03721,0 -0.06201,-0.02481 -0.02481,-0.02584 -0.02481,-0.06201 v -0.03824 q -0.127124,0.125058 -0.237712,0.125058 h -0.147795 q -0.08888,0 -0.177767,-0.07648 l -0.07235,-0.06098 q -0.02481,-0.02377 -0.04754,-0.07958 -0.0217,-0.05581 -0.0217,-0.104386 v -0.353468 q 0,-0.05891 0.02481,-0.113688 0.0248,-0.05581 0.05788,-0.08372 l 0.07131,-0.06098 q 0.07648,-0.06615 0.179835,-0.06615 h 0.125057 q 0.102319,0 0.186035,0.07235 z m -0.252181,0.05271 h -0.120923 q -0.03824,0 -0.06925,0.02791 l -0.05581,0.04858 q -0.02894,0.02584 -0.02894,0.06615 v 0.367937 q 0,0.03617 0.03411,0.06511 l 0.05684,0.04858 q 0.02687,0.02377 0.05684,0.02377 h 0.141594 q 0.02791,0 0.06615,-0.03204 l 0.137459,-0.113688 q 0.03411,-0.02997 0.03411,-0.07441 v -0.188103 q 0,-0.06305 -0.03617,-0.09302 l -0.141593,-0.120923 q -0.02791,-0.02584 -0.07441,-0.02584 z"
         style="font-style:normal;font-variant:normal;font-weight:normal;font-stretch:normal;font-size:2.11667px;font-family:'OCR A Extended';-inkscape-font-specification:'OCR A Extended, Normal';font-variant-ligatures:normal;font-variant-caps:normal;font-variant-numeric:normal;font-variant-east-asian:normal;stroke-width:0.264583"
         id="path1744" />
      <path
         d="m 46.318823,75.217928 v 0.209806 q 0,0.03514 -0.02584,0.06098 -0.02584,0.02584 -0.06098,0.02584 h -0.613917 v 0.05064 q 0,0.04444 0.03824,0.07545 l 0.05064,0.04237 q 0.04134,0.03204 0.07855,0.03204 h 0.446485 q 0.03514,0 0.06098,0.02584 0.02584,0.02481 0.02584,0.06098 0,0.03514 -0.02687,0.06098 -0.02584,0.02584 -0.05994,0.02584 h -0.457854 q -0.04548,0 -0.09612,-0.0186 -0.04961,-0.01964 -0.07338,-0.04031 l -0.07751,-0.06821 q -0.03617,-0.02894 -0.06098,-0.08062 -0.02377,-0.05168 -0.02377,-0.09508 v -0.397909 q 0,-0.03411 0.02584,-0.09198 0.02687,-0.05788 0.06718,-0.08992 l 0.07235,-0.05684 q 0.07131,-0.05788 0.15813,-0.05788 h 0.243913 q 0.09198,0 0.173633,0.07648 l 0.06511,0.06201 q 0.07028,0.06305 0.07028,0.188103 z m -0.698667,-0.01344 v 0.134359 h 0.527101 v -0.120923 q 0,-0.04858 -0.02997,-0.07442 l -0.05064,-0.04444 q -0.03927,-0.03204 -0.07028,-0.03204 h -0.218075 q -0.04031,0 -0.07338,0.02791 l -0.05064,0.04237 q -0.03411,0.02584 -0.03411,0.06718 z"
         style="font-style:normal;font-variant:normal;font-weight:normal;font-stretch:normal;font-size:2.11667px;font-family:'OCR A Extended';-inkscape-font-specification:'OCR A Extended, Normal';font-variant-ligatures:normal;font-variant-caps:normal;font-variant-numeric:normal;font-variant-east-asian:normal;stroke-width:0.264583"
         id="path1746" />
      <path
         d="m 47.072266,74.74147 h 0.173633 q 0.03721,0 0.06305,0.0279 0.02584,0.02791 0.02584,0.05891 v 0.149861 q 0,0.03514 -0.02687,0.06098 -0.02584,0.02584 -0.05994,0.02584 h -0.177767 q -0.03617,0 -0.06098,-0.02481 -0.02377,-0.0248 -0.02377,-0.06201 v -0.149861 q 0,-0.03514 0.0248,-0.06098 0.02584,-0.02584 0.06201,-0.02584 z m 0,0.599448 h 0.173633 q 0.03617,0 0.06201,0.02584 0.02687,0.02481 0.02687,0.06098 v 0.147795 q 0,0.03617 -0.02584,0.06305 -0.02584,0.02584 -0.06098,0.02584 h -0.177767 q -0.03617,0 -0.06098,-0.02584 -0.02377,-0.02584 -0.02377,-0.06098 v -0.149862 q 0,-0.03721 0.0248,-0.06201 0.02584,-0.0248 0.06201,-0.0248 z"
         style="font-style:normal;font-variant:normal;font-weight:normal;font-stretch:normal;font-size:2.11667px;font-family:'OCR A Extended';-inkscape-font-specification:'OCR A Extended, Normal';font-variant-ligatures:normal;font-variant-caps:normal;font-variant-numeric:normal;font-variant-east-asian:normal;stroke-width:0.264583"
         id="path1748" />
      <path
         d="m 49.360502,75.712988 h 0.266651 V 74.68876 h -0.262517 q -0.03617,0 -0.06201,-0.02481 -0.02481,-0.02584 -0.02481,-0.06201 0,-0.03617 0.02481,-0.06098 0.02584,-0.02584 0.06201,-0.02584 h 0.43615 v 1.197861 h 0.173633 v -0.361735 q 0,-0.03514 0.0248,-0.06098 0.02584,-0.02584 0.06201,-0.02584 0.03617,0 0.06098,0.02584 0.02584,0.0248 0.02584,0.06098 v 0.448552 q 0,0.03617 -0.02584,0.06201 -0.02481,0.02481 -0.06098,0.02481 h -0.700733 q -0.03617,0 -0.06201,-0.02584 -0.02481,-0.02687 -0.02481,-0.06305 0,-0.03514 0.02481,-0.05994 0.02584,-0.02481 0.06201,-0.02481 z"
         style="font-style:normal;font-variant:normal;font-weight:normal;font-stretch:normal;font-size:2.11667px;font-family:'OCR A Extended';-inkscape-font-specification:'OCR A Extended, Normal';font-variant-ligatures:normal;font-variant-caps:normal;font-variant-numeric:normal;font-variant-east-asian:normal;stroke-width:0.264583"
         id="path1750" />
      <path
         d="m 51.345914,75.886622 h -0.789617 v -0.599448 q 0,-0.07235 0.05064,-0.124024 0.05168,-0.05168 0.12299,-0.05168 h 0.5271 V 74.68876 h -0.620118 q -0.03721,0 -0.06201,-0.02481 -0.0248,-0.02584 -0.0248,-0.06201 0,-0.03617 0.0248,-0.06098 0.0248,-0.02584 0.06201,-0.02584 h 0.620118 q 0.07235,0 0.124024,0.05168 0.05168,0.05064 0.05168,0.121957 v 0.422714 q 0,0.07338 -0.05168,0.125057 -0.05168,0.05064 -0.124024,0.05064 h -0.5271 v 0.425814 h 0.615984 q 0.03514,0 0.06098,0.02584 0.02584,0.0248 0.02584,0.06098 0,0.03617 -0.02584,0.06201 -0.02584,0.02481 -0.06098,0.02481 z"
         style="font-style:normal;font-variant:normal;font-weight:normal;font-stretch:normal;font-size:2.11667px;font-family:'OCR A Extended';-inkscape-font-specification:'OCR A Extended, Normal';font-variant-ligatures:normal;font-variant-caps:normal;font-variant-numeric:normal;font-variant-east-asian:normal;stroke-width:0.264583"
         id="path1752" />
      <path
         d="m 51.917456,75.712988 h 0.266651 V 74.68876 H 51.92159 q -0.03617,0 -0.06201,-0.02481 -0.0248,-0.02584 -0.0248,-0.06201 0,-0.03617 0.0248,-0.06098 0.02584,-0.02584 0.06201,-0.02584 h 0.43615 v 1.197861 h 0.173633 v -0.361735 q 0,-0.03514 0.02481,-0.06098 0.02584,-0.02584 0.06201,-0.02584 0.03617,0 0.06098,0.02584 0.02584,0.0248 0.02584,0.06098 v 0.448552 q 0,0.03617 -0.02584,0.06201 -0.02481,0.02481 -0.06098,0.02481 h -0.700734 q -0.03617,0 -0.06201,-0.02584 -0.0248,-0.02687 -0.0248,-0.06305 0,-0.03514 0.0248,-0.05994 0.02584,-0.02481 0.06201,-0.02481 z"
         style="font-style:normal;font-variant:normal;font-weight:normal;font-stretch:normal;font-size:2.11667px;font-family:'OCR A Extended';-inkscape-font-specification:'OCR A Extended, Normal';font-variant-ligatures:normal;font-variant-caps:normal;font-variant-numeric:normal;font-variant-east-asian:normal;stroke-width:0.264583"
         id="path1754" />
      <path
         d="m 53.947309,74.985383 q 0,0.115756 -0.110587,0.216008 -0.109555,0.09922 -0.226344,0.09922 h -0.118856 q -0.118855,0 -0.227376,-0.100253 -0.108521,-0.101285 -0.108521,-0.214974 v -0.155029 q 0,-0.116789 0.107487,-0.216008 0.107487,-0.09922 0.22841,-0.09922 h 0.118856 q 0.118856,0 0.227377,0.09818 0.109554,0.09819 0.109554,0.217042 z m -0.173633,-0.0072 v -0.139526 q 0,-0.05064 -0.03204,-0.07648 l -0.06098,-0.04858 q -0.03101,-0.02481 -0.07235,-0.02481 h -0.09508 q -0.05891,0 -0.09095,0.02687 l -0.05994,0.05168 q -0.03101,0.02584 -0.03101,0.06925 v 0.139526 q 0,0.04858 0.03411,0.07648 l 0.06511,0.05478 q 0.0217,0.01964 0.06098,0.01964 h 0.116789 q 0.04444,0 0.08062,-0.03204 l 0.05271,-0.04651 q 0.03204,-0.02481 0.03204,-0.07028 z"
         style="font-style:normal;font-variant:normal;font-weight:normal;font-stretch:normal;font-size:2.11667px;font-family:'OCR A Extended';-inkscape-font-specification:'OCR A Extended, Normal';font-variant-ligatures:normal;font-variant-caps:normal;font-variant-numeric:normal;font-variant-east-asian:normal;stroke-width:0.264583"
         id="path1756" />
      <path
         d="m 56.546637,74.68876 v 0.325562 q 0,0.113688 -0.07028,0.183968 0.07235,0.08062 0.07235,0.175701 v 0.338997 q 0,0.07131 -0.05168,0.122991 -0.05168,0.05064 -0.124024,0.05064 h -0.613917 q -0.03617,0 -0.06201,-0.02481 -0.02481,-0.02584 -0.02481,-0.06201 0,-0.03617 0.02481,-0.06098 0.02584,-0.02584 0.06201,-0.02584 h 0.61185 v -0.338997 q 0,-0.03617 -0.02584,-0.06201 -0.02481,-0.02687 -0.06098,-0.02687 h -0.349333 q -0.03617,0 -0.06201,-0.02481 -0.02481,-0.0248 -0.02481,-0.06201 0,-0.03617 0.02481,-0.06098 0.02584,-0.02584 0.06201,-0.02584 h 0.3514 q 0.03514,0 0.06098,-0.02481 0.02584,-0.02584 0.02584,-0.06201 V 74.68876 h -0.620118 q -0.03617,0 -0.06201,-0.02481 -0.0248,-0.02584 -0.0248,-0.06201 0,-0.03617 0.0248,-0.06098 0.02584,-0.02584 0.06201,-0.02584 h 0.620118 q 0.07235,0 0.12299,0.05168 0.05064,0.05064 0.05064,0.121957 z"
         style="font-style:normal;font-variant:normal;font-weight:normal;font-stretch:normal;font-size:2.11667px;font-family:'OCR A Extended';-inkscape-font-specification:'OCR A Extended, Normal';font-variant-ligatures:normal;font-variant-caps:normal;font-variant-numeric:normal;font-variant-east-asian:normal;stroke-width:0.264583"
         id="path1758" />
      <path
         d="m 56.944546,75.710921 v -0.423747 q 0,-0.07131 0.05168,-0.121957 0.05168,-0.05168 0.124024,-0.05168 v -0.511598 q 0,-0.03617 0.0248,-0.06098 0.02481,-0.02584 0.06201,-0.02584 h 0.353467 q 0.03617,0 0.06098,0.02584 0.02584,0.02481 0.02584,0.06098 v 0.511598 q 0.07028,0 0.121957,0.05064 0.05168,0.04961 0.05168,0.12299 v 0.425814 q 0,0.07131 -0.05168,0.122991 -0.05168,0.05064 -0.121957,0.05064 h -0.5271 q -0.07338,0 -0.125058,-0.05374 -0.05064,-0.05374 -0.05064,-0.121957 z M 57.29388,74.68876 v 0.424781 h 0.179834 V 74.68876 Z m -0.173633,0.598414 v 0.425814 h 0.5271 v -0.425814 z"
         style="font-style:normal;font-variant:normal;font-weight:normal;font-stretch:normal;font-size:2.11667px;font-family:'OCR A Extended';-inkscape-font-specification:'OCR A Extended, Normal';font-variant-ligatures:normal;font-variant-caps:normal;font-variant-numeric:normal;font-variant-east-asian:normal;stroke-width:0.264583"
         id="path1760" />
      <path
         d="m 58.584759,74.515127 h 0.171566 q 0.03617,0 0.06201,0.02687 0.02584,0.02584 0.02584,0.06098 0,0.01137 -0.0031,0.0217 l -0.173633,0.597381 q -0.02067,0.06511 -0.08475,0.06511 -0.03824,0 -0.06408,-0.02687 -0.02481,-0.02687 -0.02481,-0.06615 v -0.581877 q 0,-0.04134 0.02377,-0.06925 0.02481,-0.0279 0.06718,-0.0279 z"
         style="font-style:normal;font-variant:normal;font-weight:normal;font-stretch:normal;font-size:2.11667px;font-family:'OCR A Extended';-inkscape-font-specification:'OCR A Extended, Normal';font-variant-ligatures:normal;font-variant-caps:normal;font-variant-numeric:normal;font-variant-east-asian:normal;stroke-width:0.264583"
         id="path1762" />
      <path
         d="m 60.782044,75.71919 v -1.038698 q 0,-0.06821 0.04961,-0.117823 0.04961,-0.04961 0.117823,-0.04961 h 0.541569 q 0.06718,0 0.115756,0.04961 0.04961,0.04961 0.04961,0.117823 v 1.038698 q 0,0.06925 -0.04961,0.118856 -0.04858,0.04858 -0.117823,0.04858 h -0.539502 q -0.07028,0 -0.118856,-0.04858 -0.04858,-0.04961 -0.04858,-0.118856 z m 0.7028,-0.0062 V 74.68876 h -0.529167 v 1.024228 z"
         style="font-style:normal;font-variant:normal;font-weight:normal;font-stretch:normal;font-size:2.11667px;font-family:'OCR A Extended';-inkscape-font-specification:'OCR A Extended, Normal';font-variant-ligatures:normal;font-variant-caps:normal;font-variant-numeric:normal;font-variant-east-asian:normal;stroke-width:0.264583"
         id="path1764" />
      <path
         d="m 62.058453,75.710921 v -0.423747 q 0,-0.07131 0.05168,-0.121957 0.05168,-0.05168 0.124023,-0.05168 v -0.511598 q 0,-0.03617 0.02481,-0.06098 0.02481,-0.02584 0.06201,-0.02584 h 0.353467 q 0.03617,0 0.06098,0.02584 0.02584,0.02481 0.02584,0.06098 v 0.511598 q 0.07028,0 0.121956,0.05064 0.05168,0.04961 0.05168,0.12299 v 0.425814 q 0,0.07131 -0.05168,0.122991 -0.05168,0.05064 -0.121956,0.05064 h -0.527101 q -0.07338,0 -0.125057,-0.05374 -0.05064,-0.05374 -0.05064,-0.121957 z m 0.349334,-1.022161 v 0.424781 h 0.179834 V 74.68876 Z m -0.173634,0.598414 v 0.425814 h 0.527101 v -0.425814 z"
         style="font-style:normal;font-variant:normal;font-weight:normal;font-stretch:normal;font-size:2.11667px;font-family:'OCR A Extended';-inkscape-font-specification:'OCR A Extended, Normal';font-variant-ligatures:normal;font-variant-caps:normal;font-variant-numeric:normal;font-variant-east-asian:normal;stroke-width:0.264583"
         id="path1766" />
      <path
         d="m 63.338997,74.51306 h 0.876434 v 0.08062 l -0.08682,0.467156 q -0.0155,0.07441 -0.08888,0.07441 -0.07235,0 -0.08682,-0.07441 L 63.8785,74.68876 h -0.201539 l -0.07545,0.374138 q -0.01757,0.07441 -0.08682,0.07441 -0.07545,0 -0.08888,-0.07441 l -0.08682,-0.469223 z"
         style="font-style:normal;font-variant:normal;font-weight:normal;font-stretch:normal;font-size:2.11667px;font-family:'OCR A Extended';-inkscape-font-specification:'OCR A Extended, Normal';font-variant-ligatures:normal;font-variant-caps:normal;font-variant-numeric:normal;font-variant-east-asian:normal;stroke-width:0.264583"
         id="path1768" />
      <path
         d="m 66.42512,75.052563 v 0.577743 l 0.05064,0.08475 h 0.07235 l 0.05271,-0.08682 v -1.024228 q 0,-0.03617 0.02584,-0.06201 0.02687,-0.02687 0.06305,-0.02687 0.03514,0 0.06098,0.02584 0.02584,0.02584 0.02584,0.06098 v 1.054201 q 0,0.01964 -0.0217,0.05478 l -0.08062,0.133326 q -0.02481,0.04444 -0.07545,0.04444 h -0.163298 q -0.07752,0 -0.09922,-0.07028 -0.02377,0.07028 -0.09508,0.07028 h -0.152963 q -0.06615,0 -0.09508,-0.04858 l -0.07441,-0.125057 q -0.02067,-0.03411 -0.02067,-0.05891 v -1.052133 q 0,-0.03617 0.02584,-0.06201 0.02687,-0.02687 0.06305,-0.02687 0.03411,0 0.05891,0.02687 0.02584,0.02584 0.02584,0.06201 v 1.028362 l 0.05064,0.08268 h 0.07441 l 0.05478,-0.08682 v -0.575676 q 0,-0.03617 0.02481,-0.06098 0.02584,-0.02584 0.06201,-0.02584 0.03617,0 0.06098,0.02584 0.02584,0.02481 0.02584,0.06098 z"
         style="font-style:normal;font-variant:normal;font-weight:normal;font-stretch:normal;font-size:2.11667px;font-family:'OCR A Extended';-inkscape-font-specification:'OCR A Extended, Normal';font-variant-ligatures:normal;font-variant-caps:normal;font-variant-numeric:normal;font-variant-east-asian:normal;stroke-width:0.264583"
         id="path1770" />
    </g>
    <g
       aria-label="DESIGNS"
       transform="scale(1.0082375,0.99182979)"
       id="text2787"
       style="font-style:normal;font-variant:normal;font-weight:normal;font-stretch:normal;font-size:1.76085px;line-height:1.25;font-family:'Copperplate Gothic Light';-inkscape-font-specification:'Copperplate Gothic Light, Normal';font-variant-ligatures:normal;font-variant-caps:normal;font-variant-numeric:normal;font-variant-east-asian:normal;fill:#000000;fill-opacity:1;stroke:none;stroke-width:0.060029">
      <path
         d="m 111.78746,107.55724 v -0.99478 q 0,-0.0258 -0.012,-0.0396 -0.012,-0.0138 -0.043,-0.0224 v -0.0275 h 0.61905 q 0.21065,0 0.32242,0.0585 0.141,0.0731 0.21495,0.22527 0.0645,0.13326 0.0645,0.30264 0,0.20033 -0.0868,0.34564 -0.0782,0.12897 -0.19861,0.18571 -0.11951,0.0559 -0.3164,0.0559 h -0.61905 v -0.0275 q 0.031,-0.009 0.043,-0.0224 0.012,-0.0138 0.012,-0.0396 z m 0.13499,-0.0223 h 0.42388 q 0.18657,0 0.27685,-0.0576 0.10661,-0.0688 0.15648,-0.21065 0.0327,-0.0946 0.0327,-0.20721 0,-0.20463 -0.10403,-0.33875 -0.0576,-0.0739 -0.14015,-0.1049 -0.0825,-0.031 -0.22182,-0.031 h -0.42388 z"
         style="font-style:normal;font-variant:normal;font-weight:normal;font-stretch:normal;font-size:1.76085px;font-family:'Copperplate Gothic Light';-inkscape-font-specification:'Copperplate Gothic Light, Normal';font-variant-ligatures:normal;font-variant-caps:normal;font-variant-numeric:normal;font-variant-east-asian:normal;stroke-width:0.060029"
         id="path1677" />
      <path
         d="m 113.37206,107.09897 v 0.43592 h 0.75231 q 0.0361,0 0.0507,-0.0112 0.0155,-0.0112 0.0232,-0.0438 h 0.0275 v 0.22183 h -0.0267 q -0.009,-0.0327 -0.0241,-0.0439 -0.0146,-0.0112 -0.0507,-0.0112 h -0.94233 v -0.0275 q 0.0335,-0.009 0.0439,-0.0232 0.0112,-0.0146 0.0112,-0.0507 v -0.9707 q 0,-0.0361 -0.0112,-0.0507 -0.0112,-0.0146 -0.0439,-0.0232 v -0.0275 h 0.93116 q 0.0361,0 0.0507,-0.0112 0.0146,-0.0112 0.0232,-0.0447 h 0.0275 v 0.22183 h -0.0275 q -0.008,-0.0318 -0.0232,-0.043 -0.0146,-0.0112 -0.0507,-0.0112 h -0.74114 v 0.40238 h 0.48578 q 0.0361,0 0.0507,-0.0112 0.0155,-0.0112 0.0232,-0.0439 h 0.0275 v 0.22183 h -0.0275 q -0.008,-0.0327 -0.0232,-0.0438 -0.0146,-0.0112 -0.0507,-0.0112 z"
         style="font-style:normal;font-variant:normal;font-weight:normal;font-stretch:normal;font-size:1.76085px;font-family:'Copperplate Gothic Light';-inkscape-font-specification:'Copperplate Gothic Light, Normal';font-variant-ligatures:normal;font-variant-caps:normal;font-variant-numeric:normal;font-variant-east-asian:normal;stroke-width:0.060029"
         id="path1679" />
      <path
         d="m 115.55077,106.54527 -0.12295,0.22182 -0.0241,-0.0129 q 0.0146,-0.0387 0.0146,-0.0481 0,-0.0258 -0.0636,-0.0559 -0.17281,-0.0808 -0.36627,-0.0808 -0.15906,0 -0.27685,0.0593 -0.0567,0.0292 -0.0903,0.0757 -0.0327,0.0464 -0.0327,0.098 0,0.043 0.0258,0.0817 0.0258,0.0378 0.0679,0.0567 0.0464,0.0215 0.10919,0.0301 0.0636,0.008 0.20635,0.012 0.19775,0.006 0.28287,0.0189 0.0851,0.012 0.14015,0.043 0.14616,0.0817 0.14616,0.24848 0,0.15906 -0.13241,0.26051 -0.14702,0.11349 -0.40496,0.11349 -0.14874,0 -0.25965,-0.0301 -0.11092,-0.0301 -0.26482,-0.11091 -0.043,-0.0198 -0.0507,-0.0198 -0.0129,0 -0.0404,0.031 l -0.0232,-0.0146 0.12897,-0.21581 0.0241,0.0138 q -0.0163,0.0344 -0.0163,0.0464 0,0.0275 0.11005,0.0851 0.0989,0.0516 0.19001,0.0748 0.092,0.0223 0.19947,0.0223 0.21753,0 0.33016,-0.0954 0.0748,-0.0636 0.0748,-0.15133 0,-0.11521 -0.1281,-0.15906 -0.0413,-0.0146 -0.086,-0.0181 -0.0438,-0.004 -0.25106,-0.012 -0.14789,-0.006 -0.23214,-0.0224 -0.0834,-0.0163 -0.14875,-0.0533 -0.061,-0.0344 -0.0971,-0.0963 -0.0353,-0.0619 -0.0353,-0.13498 0,-0.12467 0.0929,-0.21409 0.0688,-0.0654 0.19001,-0.10232 0.12124,-0.0378 0.26568,-0.0378 0.11779,0 0.21839,0.0232 0.10145,0.0232 0.2287,0.08 0.0284,0.012 0.0353,0.012 0.0155,0 0.0421,-0.0344 z"
         style="font-style:normal;font-variant:normal;font-weight:normal;font-stretch:normal;font-size:1.76085px;font-family:'Copperplate Gothic Light';-inkscape-font-specification:'Copperplate Gothic Light, Normal';font-variant-ligatures:normal;font-variant-caps:normal;font-variant-numeric:normal;font-variant-east-asian:normal;stroke-width:0.060029"
         id="path1681" />
      <path
         d="m 115.8216,107.5452 v -0.9707 q 0,-0.0361 -0.0112,-0.0507 -0.0112,-0.0155 -0.0438,-0.0232 v -0.0275 h 0.24504 v 0.0275 q -0.0327,0.009 -0.0439,0.0232 -0.0112,0.0146 -0.0112,0.0507 v 0.9707 q 0,0.0361 0.0103,0.0507 0.0112,0.0146 0.0447,0.0232 v 0.0275 h -0.24504 v -0.0275 q 0.0335,-0.009 0.0438,-0.0232 0.0112,-0.0146 0.0112,-0.0507 z"
         style="font-style:normal;font-variant:normal;font-weight:normal;font-stretch:normal;font-size:1.76085px;font-family:'Copperplate Gothic Light';-inkscape-font-specification:'Copperplate Gothic Light, Normal';font-variant-ligatures:normal;font-variant-caps:normal;font-variant-numeric:normal;font-variant-east-asian:normal;stroke-width:0.060029"
         id="path1683" />
      <path
         d="m 117.50851,106.58568 -0.13155,0.20979 -0.0224,-0.0155 q 0.0155,-0.0258 0.0155,-0.0387 0,-0.0266 -0.092,-0.0757 -0.17711,-0.0963 -0.36283,-0.0963 -0.2158,0 -0.36369,0.12123 -0.16938,0.13757 -0.16938,0.37143 0,0.22785 0.16164,0.36283 0.14875,0.12467 0.38003,0.12467 0.12209,0 0.23214,-0.0378 0.11092,-0.0387 0.18658,-0.10747 v -0.21667 h -0.27771 q -0.0361,0 -0.0516,0.0112 -0.0146,0.0112 -0.0224,0.0438 h -0.0275 v -0.22183 h 0.0275 q 0.008,0.0327 0.0224,0.0439 0.0155,0.0112 0.0516,0.0112 h 0.4617 v 0.0275 q -0.0327,0.009 -0.0439,0.0232 -0.0112,0.0146 -0.0112,0.0507 v 0.15219 q 0,0.0361 0.0112,0.0507 0.0112,0.0146 0.0439,0.0232 v 0.0241 q -0.0971,0.0868 -0.18313,0.13499 -0.18658,0.10489 -0.4256,0.10489 -0.29405,0 -0.47546,-0.15906 -0.0894,-0.0782 -0.14187,-0.18743 -0.0593,-0.12467 -0.0593,-0.2631 0,-0.19861 0.11607,-0.35251 0.10747,-0.14187 0.28889,-0.20721 0.12811,-0.0456 0.27513,-0.0456 0.12897,0 0.23902,0.031 0.11006,0.031 0.2373,0.10232 0.037,0.0206 0.0456,0.0206 0.0138,0 0.0421,-0.0361 z"
         style="font-style:normal;font-variant:normal;font-weight:normal;font-stretch:normal;font-size:1.76085px;font-family:'Copperplate Gothic Light';-inkscape-font-specification:'Copperplate Gothic Light, Normal';font-variant-ligatures:normal;font-variant-caps:normal;font-variant-numeric:normal;font-variant-east-asian:normal;stroke-width:0.060029"
         id="path1685" />
      <path
         d="m 117.92723,106.62179 v 0.92341 q 0,0.0353 0.0112,0.0507 0.0112,0.0146 0.0438,0.0232 v 0.0275 h -0.233 v -0.0275 q 0.0335,-0.009 0.0438,-0.0232 0.0112,-0.0146 0.0112,-0.0507 v -0.9707 q 0,-0.0361 -0.0112,-0.0507 -0.0112,-0.0155 -0.0438,-0.0232 v -0.0275 h 0.33704 v 0.0275 q -0.0404,0.0138 -0.0404,0.0387 0,0.0172 0.0404,0.0645 l 0.70674,0.82712 v -0.85635 q 0,-0.0361 -0.0112,-0.0507 -0.0112,-0.0155 -0.0438,-0.0232 v -0.0275 h 0.233 v 0.0275 q -0.0327,0.008 -0.0439,0.0232 -0.0112,0.0146 -0.0112,0.0507 v 0.9707 q 0,0.0361 0.0112,0.0507 0.0112,0.0146 0.0439,0.0232 v 0.0275 h -0.27083 v -0.0275 q 0.0395,-0.0103 0.0395,-0.0353 0,-0.0189 -0.0361,-0.0619 z"
         style="font-style:normal;font-variant:normal;font-weight:normal;font-stretch:normal;font-size:1.76085px;font-family:'Copperplate Gothic Light';-inkscape-font-specification:'Copperplate Gothic Light, Normal';font-variant-ligatures:normal;font-variant-caps:normal;font-variant-numeric:normal;font-variant-east-asian:normal;stroke-width:0.060029"
         id="path1687" />
      <path
         d="m 120.3312,106.54527 -0.12295,0.22182 -0.0241,-0.0129 q 0.0146,-0.0387 0.0146,-0.0481 0,-0.0258 -0.0636,-0.0559 -0.17282,-0.0808 -0.36627,-0.0808 -0.15907,0 -0.27686,0.0593 -0.0567,0.0292 -0.0903,0.0757 -0.0327,0.0464 -0.0327,0.098 0,0.043 0.0258,0.0817 0.0258,0.0378 0.0679,0.0567 0.0464,0.0215 0.10919,0.0301 0.0636,0.008 0.20635,0.012 0.19775,0.006 0.28287,0.0189 0.0851,0.012 0.14015,0.043 0.14616,0.0817 0.14616,0.24848 0,0.15906 -0.1324,0.26051 -0.14703,0.11349 -0.40496,0.11349 -0.14875,0 -0.25966,-0.0301 -0.11091,-0.0301 -0.26482,-0.11091 -0.043,-0.0198 -0.0507,-0.0198 -0.0129,0 -0.0404,0.031 l -0.0232,-0.0146 0.12897,-0.21581 0.0241,0.0138 q -0.0163,0.0344 -0.0163,0.0464 0,0.0275 0.11005,0.0851 0.0989,0.0516 0.19001,0.0748 0.092,0.0223 0.19948,0.0223 0.21752,0 0.33016,-0.0954 0.0748,-0.0636 0.0748,-0.15133 0,-0.11521 -0.12811,-0.15906 -0.0413,-0.0146 -0.086,-0.0181 -0.0438,-0.004 -0.25106,-0.012 -0.14788,-0.006 -0.23214,-0.0224 -0.0834,-0.0163 -0.14875,-0.0533 -0.061,-0.0344 -0.0971,-0.0963 -0.0353,-0.0619 -0.0353,-0.13498 0,-0.12467 0.0928,-0.21409 0.0688,-0.0654 0.19002,-0.10232 0.12123,-0.0378 0.26567,-0.0378 0.11779,0 0.21839,0.0232 0.10145,0.0232 0.2287,0.08 0.0284,0.012 0.0352,0.012 0.0155,0 0.0421,-0.0344 z"
         style="font-style:normal;font-variant:normal;font-weight:normal;font-stretch:normal;font-size:1.76085px;font-family:'Copperplate Gothic Light';-inkscape-font-specification:'Copperplate Gothic Light, Normal';font-variant-ligatures:normal;font-variant-caps:normal;font-variant-numeric:normal;font-variant-east-asian:normal;stroke-width:0.060029"
         id="path1689" />
    </g>
    <path
       style="color:#000000;font-style:normal;font-variant:normal;font-weight:normal;font-stretch:normal;font-size:medium;line-height:normal;font-family:sans-serif;font-variant-ligatures:normal;font-variant-position:normal;font-variant-caps:normal;font-variant-numeric:normal;font-variant-alternates:normal;font-variant-east-asian:normal;font-feature-settings:normal;font-variation-settings:normal;text-indent:0;text-align:start;text-decoration:none;text-decoration-line:none;text-decoration-style:solid;text-decoration-color:#000000;letter-spacing:normal;word-spacing:normal;text-transform:none;writing-mode:lr-tb;direction:ltr;text-orientation:mixed;dominant-baseline:auto;baseline-shift:baseline;text-anchor:start;white-space:normal;shape-padding:0;shape-margin:0;inline-size:0;clip-rule:nonzero;display:inline;overflow:visible;visibility:visible;isolation:auto;mix-blend-mode:normal;color-interpolation:sRGB;color-interpolation-filters:linearRGB;solid-color:#000000;solid-opacity:1;vector-effect:none;fill:#000000;fill-opacity:1;fill-rule:nonzero;stroke:none;stroke-linecap:round;stroke-linejoin:round;stroke-miterlimit:4;stroke-dasharray:none;stroke-dashoffset:0;stroke-opacity:1;color-rendering:auto;image-rendering:auto;shape-rendering:auto;text-rendering:auto;enable-background:accumulate;stop-color:#000000;stop-opacity:1;opacity:1"
       d="M 113.1543 102.28711 C 112.62254 102.28711 112.19531 102.7395 112.19531 103.29297 L 112.19531 106.25 C 112.19531 106.80346 112.62254 107.25586 113.1543 107.25586 L 120.83789 107.25586 C 121.36965 107.25586 121.79492 106.80346 121.79492 106.25 L 121.79492 103.29297 C 121.79492 102.7395 121.36965 102.28711 120.83789 102.28711 L 113.1543 102.28711 z M 113.1543 102.44531 L 120.83789 102.44531 C 121.27973 102.44531 121.63672 102.82048 121.63672 103.29297 L 121.63672 106.25 C 121.63672 106.72248 121.27973 107.09766 120.83789 107.09766 L 113.1543 107.09766 C 112.71246 107.09766 112.35547 106.72248 112.35547 106.25 L 112.35547 103.29297 C 112.35547 102.82048 112.71246 102.44531 113.1543 102.44531 z "
       id="rect837" />
  </g>
</svg>
